<?xml version="1.0" encoding="UTF-8" standalone="no"?>
<svg width="233px" height="115px" viewBox="0 0 233 115" version="1.1" xmlns="http://www.w3.org/2000/svg" xmlns:xlink="http://www.w3.org/1999/xlink">
    <!-- Generator: Sketch 3.7.2 (28276) - http://www.bohemiancoding.com/sketch -->
    <title>Artboard 1</title>
    <desc>Created with Sketch.</desc>
    <defs></defs>
    <g id="Page-1" stroke="none" stroke-width="1" fill="none" fill-rule="evenodd">
        <g id="Artboard-1">
            <g id="vcuarts-copy" opacity="0.8" transform="translate(63.000000, 29.000000)" fill="#000000">
                <polygon id="Fill-1" points="13.1815834 4.86122353 9.21896612 16.6868706 9.17413118 16.6868706 5.41722716 4.86122353 0.324505732 4.86122353 6.20051989 21.1865176 11.7073051 21.1865176 17.7679338 4.86122353"></polygon>
                <path d="M28.5727581,9.99395294 C28.4580334,8.52383529 27.3292479,7.68783529 25.4395872,7.68783529 C22.7890511,7.68783529 22.3050976,10.7393647 22.3050976,13.1826588 C22.3050976,15.5573647 22.8352048,18.3604235 25.4395872,18.3604235 C27.3754015,18.3604235 28.4804509,17.5231294 28.5727581,15.9637176 L33.4109753,15.9637176 C33.4795464,20.0790118 29.4707755,21.5258353 25.4395872,21.5258353 C20.2545585,21.5258353 17.4668803,18.4730118 17.4668803,13.0014824 C17.4668803,7.52995294 20.2545585,4.56771765 25.4395872,4.52242353 C29.4707755,4.52242353 33.4795464,5.87865882 33.4109753,9.99395294 L28.5727581,9.99395294 Z" id="Fill-2"></path>
                <path d="M50.3919441,4.86122353 L50.3919441,15.1947529 C50.3457905,19.7396941 46.6363588,21.5255765 42.4429735,21.5255765 C38.2495881,21.5255765 34.5401564,19.7396941 34.4940028,15.1947529 L34.4940028,4.86122353 L39.1027706,4.86122353 L39.1027706,14.9682824 C39.1713417,17.0492235 40.2777097,18.3601647 42.4429735,18.3601647 C44.6082372,18.3601647 45.7146052,17.0492235 45.784495,14.9682824 L45.784495,4.86122353 L50.3919441,4.86122353 Z" id="Fill-4"></path>
                <path d="M52.7552728,9.54191765 C52.7882397,7.50368235 53.678345,6.24321176 54.9970197,5.49909412 C56.3473425,4.72262353 58.0945864,4.4638 59.8747971,4.4638 C63.2031319,4.4638 66.9283877,5.66085882 66.9283877,10.5448588 L66.9283877,19.4082706 C66.9613546,20.2158 67.0932221,20.7010941 67.1591558,21.1863882 L62.7086289,21.1863882 C62.6097283,20.4422706 62.5451133,19.6994471 62.5451133,19.0200353 L62.4778609,19.0200353 C61.3583061,20.8952118 59.6440291,21.6716824 57.4022822,21.6716824 C54.3047155,21.6716824 51.9970349,19.9259176 51.9970349,16.7553294 C51.9970349,15.6229765 52.5245047,12.8729765 55.5244895,11.6125059 C57.5011828,10.7713294 60.0066646,10.6742706 61.9846766,10.7389765 L61.9846766,9.21838824 C61.9846766,8.53897647 61.4572067,7.21250588 59.7099628,7.21250588 C57.9956858,7.21250588 57.4352491,8.7978 57.5011828,9.54191765 L52.7552728,9.54191765 Z M56.7442636,16.1082706 C56.7442636,17.4670941 57.7649177,18.4376824 59.1495261,18.4376824 C61.885776,18.4376824 61.9846766,15.4612118 61.9846766,13.5523882 C60.2703995,13.5200353 56.7442636,13.4889765 56.7442636,16.1082706 L56.7442636,16.1082706 Z" id="Fill-6"></path>
                <path d="M73.2237404,4.94870588 L73.322641,7.89282353 L73.3885748,7.89282353 C74.4435145,5.33694118 76.5533939,4.68988235 79.0245901,4.75458824 L79.0245901,9.05623529 L76.8830625,9.05623529 C76.0588909,9.12094118 74.9709843,9.57388235 74.4764813,10.2532941 C73.9490115,11.1591765 73.8501109,12.0650588 73.817144,13.1327059 L73.817144,21.186 L68.9063997,21.186 L68.8734328,8.184 C68.8734328,7.50458824 68.7745322,6.14576471 68.7072798,4.94870588 L73.2237404,4.94870588 Z" id="Fill-8"></path>
                <path d="M82.3352547,4.94870588 L82.3352547,1.74576471 L87.2802845,0 L87.2802845,4.94870588 L91.0042217,4.94870588 L91.0042217,8.184 L87.2802845,8.184 L87.2802845,15.7196471 C87.2802845,17.8549412 87.6086345,18.4372941 89.3229115,18.4372941 C89.8503814,18.4372941 90.3778512,18.3725882 90.9053211,18.3402353 L90.9053211,21.186 C90.3448844,21.4461176 87.7075351,21.6725882 87.0152309,21.6725882 C83.1594263,21.6725882 82.3352547,19.6990588 82.3352547,16.1725882 L82.3352547,8.184 L79.0056012,8.184 L79.0056012,4.94870588 L82.3352547,4.94870588 Z" id="Fill-10"></path>
                <path d="M101.353312,9.28309412 C101.287378,8.18309412 100.232439,7.6978 99.1115652,7.6978 C97.7612424,7.6978 97.1348719,8.08603529 97.1348719,9.15368235 C97.1348719,11.7095647 106.593725,10.2536824 106.593725,16.3347412 C106.593725,19.8935647 102.177484,21.6716824 99.1115652,21.6716824 C95.2557606,21.6716824 91.8931403,20.1834471 91.8272065,16.4641529 L96.4096009,16.4641529 C96.5085015,17.7259176 97.6623418,18.4376824 99.1115652,18.4376824 C100.463207,18.4376824 101.48518,17.8876824 101.48518,16.6259176 C101.48518,15.3318 99.1115652,14.7818 98.1225592,14.5553294 C94.9590588,13.8112118 92.0250077,13.1318 92.0250077,9.3478 C92.0250077,5.95203529 96.2117997,4.4638 99.1115652,4.4638 C102.606053,4.4638 105.571752,5.69321176 105.80252,9.28309412 L101.353312,9.28309412 Z" id="Fill-12"></path>
            </g>
            <text id="EDITORIAL-STYLE-GUID" font-family="Karla-Bold, Karla" font-size="14" font-weight="bold" letter-spacing="1.75" fill="#333333">
                <tspan x="20.491" y="83">EDITORIAL STYLE GUIDE</tspan>
            </text>
        </g>
    </g>
</svg>